<svg width="19" height="20" viewBox="0 0 19 20" fill="none" xmlns="http://www.w3.org/2000/svg">
<path d="M8.34976 15.3807C9.17208 15.3807 9.98636 15.2102 10.7461 14.879C11.5058 14.5477 12.1961 14.0622 12.7776 13.4501C13.3591 12.838 13.8203 12.1114 14.135 11.3117C14.4497 10.5119 14.6117 9.65481 14.6117 8.78921C14.6117 7.9236 14.4497 7.06647 14.135 6.26675C13.8203 5.46704 13.3591 4.7404 12.7776 4.12832C12.1961 3.51624 11.5058 3.03072 10.7461 2.69946C9.98636 2.36821 9.17208 2.19772 8.34976 2.19772C6.68899 2.19772 5.09625 2.89218 3.92191 4.12832C2.74757 5.36446 2.08783 7.04104 2.08783 8.78921C2.08783 10.5374 2.74757 12.214 3.92191 13.4501C5.09625 14.6862 6.68899 15.3807 8.34976 15.3807ZM14.9456 14.1789L18.6819 18.1118C18.7815 18.2132 18.861 18.3345 18.9156 18.4685C18.9702 18.6026 18.9989 18.7468 19 18.8927C19.0011 19.0385 18.9746 19.1832 18.922 19.3181C18.8694 19.4531 18.7919 19.5757 18.6938 19.6788C18.5957 19.7819 18.4792 19.8633 18.3509 19.9185C18.2226 19.9736 18.0851 20.0013 17.9465 20C17.808 19.9986 17.671 19.9682 17.5438 19.9105C17.4165 19.8528 17.3014 19.7691 17.2052 19.6641L13.4689 15.7311C11.7912 17.102 9.6802 17.7483 7.56571 17.5385C5.45123 17.3287 3.49218 16.2786 2.08736 14.6019C0.682549 12.9252 -0.0624231 10.7479 0.00410053 8.51338C0.0706241 6.27884 0.943643 4.15497 2.44544 2.57414C3.94723 0.993307 5.9649 0.0743411 8.08772 0.00431635C10.2105 -0.0657084 12.2789 0.718472 13.8718 2.19722C15.4647 3.67597 16.4623 5.73813 16.6616 7.9639C16.8609 10.1897 16.2469 12.4117 14.9446 14.1778L14.9456 14.1789Z" fill="#00F5A0"/>
</svg>
