<svg width="13" height="15" viewBox="0 0 13 15" fill="none" xmlns="http://www.w3.org/2000/svg">
<path d="M9.71913 8.58403L9.26984 8.1498V4.37143C9.26984 3.59851 8.98554 2.85725 8.47949 2.31072C7.97344 1.76418 7.28709 1.45714 6.57143 1.45714C5.85577 1.45714 5.16941 1.76418 4.66336 2.31072C4.15731 2.85725 3.87302 3.59851 3.87302 4.37143V8.1498L3.42373 8.58403C2.77176 9.21239 2.29436 10.0241 2.04484 10.9286H11.098C10.8485 10.0241 10.3711 9.21239 9.71913 8.58403ZM8.59524 12.3857C8.59524 12.9654 8.38202 13.5213 8.00248 13.9312C7.62294 14.3411 7.10818 14.5714 6.57143 14.5714C6.03468 14.5714 5.51992 14.3411 5.14038 13.9312C4.76084 13.5213 4.54762 12.9654 4.54762 12.3857H0.500003C0.499086 11.463 0.678934 10.5505 1.02773 9.70823C1.37653 8.86592 1.88639 8.11284 2.52381 7.49846V4.37143C2.52381 3.21205 2.95026 2.10016 3.70933 1.28036C4.46841 0.46056 5.49793 0 6.57143 0C7.64492 0 8.67445 0.46056 9.43353 1.28036C10.1926 2.10016 10.619 3.21205 10.619 4.37143V7.49846C11.2565 8.11284 11.7663 8.86592 12.1151 9.70823C12.4639 10.5505 12.6438 11.463 12.6429 12.3857H8.59524ZM6.57143 13.1143C6.75034 13.1143 6.92193 13.0375 7.04845 12.9009C7.17496 12.7643 7.24603 12.5789 7.24603 12.3857H5.89683C5.89683 12.5789 5.9679 12.7643 6.09441 12.9009C6.22093 13.0375 6.39251 13.1143 6.57143 13.1143Z" fill="#9F9F9F"/>
</svg>
