<svg width="15" height="15" viewBox="0 0 15 15" fill="none" xmlns="http://www.w3.org/2000/svg">
<path d="M6.40357 11.2059C7.03423 11.2059 7.65871 11.0817 8.24136 10.8404C8.82401 10.599 9.35342 10.2453 9.79936 9.79936C10.2453 9.35341 10.599 8.824 10.8404 8.24135C11.0817 7.6587 11.2059 7.03422 11.2059 6.40357C11.2059 5.77291 11.0817 5.14843 10.8404 4.56578C10.599 3.98313 10.2453 3.45372 9.79936 3.00778C9.35342 2.56183 8.82401 2.20809 8.24136 1.96675C7.65871 1.72541 7.03423 1.60119 6.40357 1.60119C5.1299 1.60119 3.9084 2.10716 3.00778 3.00778C2.10716 3.9084 1.60119 5.1299 1.60119 6.40357C1.60119 7.67723 2.10716 8.89874 3.00778 9.79936C3.9084 10.7 5.1299 11.2059 6.40357 11.2059ZM11.4621 10.3303L14.3275 13.1957C14.4039 13.2696 14.4648 13.358 14.5067 13.4557C14.5485 13.5533 14.5706 13.6584 14.5714 13.7647C14.5722 13.8709 14.5519 13.9763 14.5116 14.0746C14.4713 14.173 14.4118 14.2623 14.3366 14.3374C14.2614 14.4125 14.172 14.4719 14.0736 14.512C13.9752 14.5522 13.8698 14.5724 13.7635 14.5714C13.6572 14.5704 13.5522 14.5482 13.4546 14.5062C13.357 14.4642 13.2687 14.4032 13.1949 14.3267L10.3295 11.4613C9.04285 12.46 7.42391 12.9309 5.80228 12.7781C4.18064 12.6252 2.67821 11.8601 1.60084 10.6385C0.523459 9.4169 -0.0478733 7.83063 0.00314477 6.2026C0.0541629 4.57458 0.723696 3.0272 1.87545 1.87545C3.0272 0.723695 4.57459 0.0541628 6.20261 0.00314477C7.83063 -0.0478733 9.41691 0.523458 10.6385 1.60083C11.8601 2.67821 12.6252 4.18064 12.7781 5.80227C12.9309 7.4239 12.46 9.04284 11.4613 10.3295L11.4621 10.3303Z" fill="#9F9F9F"/>
</svg>
