<svg width="24" height="21" viewBox="0 0 24 21" fill="none" xmlns="http://www.w3.org/2000/svg">
<mask id="path-1-inside-1_206_448" fill="white">
<path d="M1.81926 1.64053C4.17328 -0.614917 7.91036 -0.534706 10.1659 1.81924L11.7177 3.43839L13.3915 1.83585C15.7516 -0.42558 19.4982 -0.345383 21.7597 2.01456C24.0129 4.36603 23.9432 8.09588 21.6034 10.3612L11.3935 20.247L8.43742 17.08L1.64055 9.98721C-0.614931 7.63319 -0.534701 3.89612 1.81926 1.64053Z"/>
</mask>
<path d="M1.81926 1.64053L0.435604 0.196407L0.435542 0.196467L1.81926 1.64053ZM10.1659 1.81924L8.72187 3.20296L8.722 3.20309L10.1659 1.81924ZM11.7177 3.43839L10.2738 4.82223L11.6569 6.26544L13.1008 4.88303L11.7177 3.43839ZM13.3915 1.83585L14.7746 3.28049L14.7752 3.27991L13.3915 1.83585ZM21.7597 2.01456L23.2038 0.63084L23.2037 0.63078L21.7597 2.01456ZM21.6034 10.3612L20.2123 8.92436L20.2122 8.92439L21.6034 10.3612ZM11.3935 20.247L9.93141 21.6117L11.3213 23.1007L12.7847 21.6838L11.3935 20.247ZM8.43742 17.08L9.89949 15.7153L9.89052 15.7057L9.88144 15.6962L8.43742 17.08ZM1.64055 9.98721L0.19643 11.3709L0.196534 11.371L1.64055 9.98721ZM1.81926 1.64053L3.20291 3.08466C4.75922 1.59352 7.23031 1.64635 8.72187 3.20296L10.1659 1.81924L11.61 0.435527C8.59041 -2.71576 3.58735 -2.82336 0.435604 0.196407L1.81926 1.64053ZM10.1659 1.81924L8.722 3.20309L10.2738 4.82223L11.7177 3.43839L13.1616 2.05454L11.6099 0.435396L10.1659 1.81924ZM11.7177 3.43839L13.1008 4.88303L14.7746 3.28049L13.3915 1.83585L12.0084 0.391203L10.3346 1.99374L11.7177 3.43839ZM13.3915 1.83585L14.7752 3.27991C16.3376 1.7828 18.8183 1.83574 20.3157 3.39833L21.7597 2.01456L23.2037 0.63078C20.1781 -2.5265 15.1655 -2.63396 12.0078 0.39178L13.3915 1.83585ZM21.7597 2.01456L20.3156 3.39827C21.8075 4.95524 21.7612 7.42462 20.2123 8.92436L21.6034 10.3612L22.9946 11.7981C26.1251 8.76713 26.2183 3.77682 23.2038 0.63084L21.7597 2.01456ZM21.6034 10.3612L20.2122 8.92439L10.0023 18.8101L11.3935 20.247L12.7847 21.6838L22.9947 11.7981L21.6034 10.3612ZM11.3935 20.247L12.8555 18.8823L9.89949 15.7153L8.43742 17.08L6.97536 18.4447L9.93141 21.6117L11.3935 20.247ZM8.43742 17.08L9.88144 15.6962L3.08456 8.60344L1.64055 9.98721L0.196534 11.371L6.99341 18.4638L8.43742 17.08ZM1.64055 9.98721L3.08467 8.60355C1.59352 7.04726 1.64634 4.57618 3.20298 3.0846L1.81926 1.64053L0.435542 0.196467C-2.71575 3.21606 -2.82338 8.21912 0.19643 11.3709L1.64055 9.98721Z" fill="#8D8D8D" mask="url(#path-1-inside-1_206_448)"/>
</svg>
