<svg width="29" height="30" viewBox="0 0 29 30" fill="none" xmlns="http://www.w3.org/2000/svg">
<path d="M23.8195 8.29296V12.7201C23.8195 12.7201 20.873 12.735 20.8582 12.7201V8.29296H16.4162C16.4162 8.29296 16.431 5.34645 16.4162 5.33164H20.8582V0.889648H23.8195V5.33164H28.2615V8.29296H23.8195ZM19.3775 14.2156V9.77363H14.9355V5.33164H3.09023C1.4615 5.33164 0.128906 6.66424 0.128906 8.29296V26.0609C0.128906 27.6897 1.4615 29.0223 3.09023 29.0223H20.8582C22.4869 29.0223 23.8195 27.6897 23.8195 26.0609V14.2156H19.3775ZM3.09023 26.0609L7.53222 20.1383L10.4935 24.5803L14.9355 18.6576L20.8582 26.0609H3.09023Z" fill="#00F5A0"/>
</svg>
